<?xml version="1.0" standalone="no"?>
<!DOCTYPE svg PUBLIC "-//W3C//DTD SVG 20010904//EN"
 "http://www.w3.org/TR/2001/REC-SVG-20010904/DTD/svg10.dtd">
<svg version="1.0" xmlns="http://www.w3.org/2000/svg"
 width="515.000000pt" height="515.000000pt" viewBox="0 0 515.000000 515.000000"
 preserveAspectRatio="xMidYMid meet">
<metadata>
Created by potrace 1.11, written by Peter Selinger 2001-2013
</metadata>
<g transform="translate(0.000000,515.000000) scale(0.100000,-0.100000)"
fill="#000000" stroke="none">
<path d="M395 4715 c-89 -16 -155 -53 -226 -124 -60 -62 -79 -94 -111 -186
-20 -60 -20 -72 -20 -1845 1 -1705 2 -1787 19 -1840 29 -85 56 -130 116 -191
59 -58 130 -98 210 -118 35 -8 606 -11 2205 -11 1858 0 2164 2 2205 15 115 35
217 116 272 216 63 116 60 31 59 1939 -1 1332 -4 1749 -13 1795 -36 174 -160
304 -338 352 -15 4 -991 8 -2168 9 -1708 2 -2154 0 -2210 -11z m2812 -371 c77
-21 130 -90 138 -179 0 -5 -3 -27 -7 -49 -20 -90 -108 -153 -202 -143 -87 9
-145 56 -170 139 -15 52 -12 79 15 135 22 45 63 81 113 99 42 15 53 14 113 -2z
m642 -12 c20 -10 51 -41 69 -68 31 -45 34 -54 30 -114 -3 -66 -9 -77 -58 -127
-78 -79 -221 -66 -283 25 -57 84 -53 173 12 242 62 67 150 83 230 42z m632 10
c59 -24 122 -116 123 -182 0 -31 -25 -96 -48 -122 -51 -57 -121 -78 -205 -62
-45 9 -116 83 -129 133 -39 156 112 291 259 233z m285 -693 c9 -15 9 -2863 0
-2878 -5 -8 -576 -11 -2131 -11 -1168 0 -2130 3 -2139 6 -15 6 -16 142 -16
1438 0 1100 3 1435 12 1444 17 17 4263 18 4274 1z"/>
<path d="M1329 2585 c-206 -207 -374 -382 -374 -390 0 -17 734 -755 750 -755
13 0 231 214 239 235 3 8 -11 29 -32 48 -20 19 -133 131 -251 250 -179 180
-212 217 -204 232 6 10 119 127 252 260 132 134 241 245 241 248 0 5 -239 247
-244 247 -2 0 -171 -169 -377 -375z"/>
<path d="M3347 2844 c-64 -63 -117 -121 -117 -128 0 -7 111 -124 246 -260 135
-136 244 -253 242 -261 -4 -17 -167 -185 -179 -185 -5 0 -9 -4 -9 -8 0 -5 -67
-76 -150 -158 -82 -82 -150 -155 -150 -163 0 -15 223 -241 239 -241 15 0 756
750 753 762 -3 12 -744 758 -753 758 -3 0 -58 -52 -122 -116z"/>
<path d="M2749 2905 c-3 -27 -7 -44 -56 -195 -13 -41 -26 -91 -29 -110 -4 -19
-9 -37 -13 -40 -6 -4 -22 -58 -46 -155 -3 -11 -9 -31 -14 -45 -5 -14 -17 -52
-26 -85 -16 -57 -25 -86 -60 -201 -9 -28 -17 -59 -20 -70 -4 -19 -65 -220
-112 -374 -15 -47 -28 -90 -29 -96 -1 -6 -5 -21 -8 -32 -6 -18 -1 -22 36 -32
24 -6 56 -15 72 -20 16 -6 40 -10 53 -10 13 0 37 -7 53 -15 28 -14 31 -14 50
5 11 11 20 29 20 40 0 10 9 42 20 70 11 27 18 50 15 50 -3 0 2 17 10 38 8 20
16 46 18 57 2 11 9 33 15 48 7 16 12 34 12 40 0 7 7 32 15 57 22 66 72 233 77
260 2 8 6 20 10 25 3 6 9 26 14 45 10 42 9 41 17 60 6 17 38 129 41 145 1 6 5
16 9 23 5 6 6 12 3 12 -3 0 2 16 10 35 8 19 14 37 14 40 -1 11 31 121 40 137
6 10 10 24 10 33 0 8 7 35 16 61 9 25 18 56 20 68 7 29 10 38 19 59 8 19 2 30
-18 33 -7 1 -39 9 -72 17 -33 9 -72 18 -87 19 -15 2 -30 7 -34 11 -14 14 -64
7 -65 -8z"/>
</g>
</svg>
